<?xml version="1.0" encoding="UTF-8" standalone="no"?>
<!-- Created with Inkscape (http://www.inkscape.org/) -->

<svg
   width="48"
   height="48"
   viewBox="0 0 12.7 12.7"
   version="1.1"
   id="svg1"
   xml:space="preserve"
   xmlns="http://www.w3.org/2000/svg"
   xmlns:svg="http://www.w3.org/2000/svg"><defs
     id="defs1" /><g
     id="layer1"><path
       style="fill:#00ff00;stroke-width:0.331723"
       d="M 4.2526696,10.216298 C 4.1830676,10.107685 4.0340476,9.8319235 3.9215146,9.6034975 3.3093073,8.3608015 2.7008837,7.1890495 2.5876822,7.0346915 2.4727569,6.8779825 2.3287173,6.8544475 1.2447914,6.8152705 0.03063387,6.7713865 0.03063387,6.7713865 0.00234966,6.5247155 -0.05064652,6.0625215 0.05978886,6.0253545 1.486141,6.0253545 c 1.5058547,0 1.4901384,-0.0076 1.9174219,0.921568 0.5921817,1.287691 1.0124896,2.062559 1.1187848,2.062559 0.063268,0 0.410884,-0.590719 0.7724816,-1.312709 0.9639136,-1.924616 1.051576,-1.925725 1.9952475,-0.02525 0.3800643,0.765417 0.6939184,1.294077 0.7682658,1.294077 0.074638,0 0.4011121,-0.554558 0.8037074,-1.365201 0.8105801,-1.632136 0.7295055,-1.575516 2.25348,-1.573748 1.17769,0.0014 1.526132,0.08715 1.584469,0.390068 0.06016,0.312384 -0.219341,0.398472 -1.298183,0.399848 -1.392496,0.0018 -1.316215,-0.05786 -2.1993791,1.719584 C 8.038888,10.877896 8.0315284,10.878836 7.0201102,8.8145435 6.7192361,8.2004615 6.4337641,7.6737425 6.3857275,7.6440545 6.2215261,7.5425725 6.0492252,7.7972525 5.4714368,8.9954805 4.7735092,10.442855 4.5447151,10.672035 4.2526696,10.2163 Z"
       id="path7" /></g></svg>
